<?xml version="1.0" encoding="UTF-8" standalone="no"?>
<svg
   xmlns:dc="http://purl.org/dc/elements/1.1/"
   xmlns:cc="http://creativecommons.org/ns#"
   xmlns:rdf="http://www.w3.org/1999/02/22-rdf-syntax-ns#"
   xmlns:svg="http://www.w3.org/2000/svg"
   xmlns="http://www.w3.org/2000/svg"
   xmlns:sodipodi="http://sodipodi.sourceforge.net/DTD/sodipodi-0.dtd"
   xmlns:inkscape="http://www.inkscape.org/namespaces/inkscape"
   width="210mm"
   height="297mm"
   viewBox="0 0 210 297"
   version="1.1"
   id="svg8"
   inkscape:version="1.0.2 (e86c870879, 2021-01-15, custom)"
   sodipodi:docname="Antenne.svg">
  <defs
     id="defs2" />
  <sodipodi:namedview
     id="base"
     pagecolor="#ffffff"
     bordercolor="#666666"
     borderopacity="1.0"
     inkscape:pageopacity="0.0"
     inkscape:pageshadow="2"
     inkscape:zoom="0.70710678"
     inkscape:cx="166.83531"
     inkscape:cy="634.89373"
     inkscape:document-units="mm"
     inkscape:current-layer="layer1"
     inkscape:document-rotation="0"
     showgrid="false"
     inkscape:window-width="1920"
     inkscape:window-height="1017"
     inkscape:window-x="-8"
     inkscape:window-y="-8"
     inkscape:window-maximized="1" />
  <metadata
     id="metadata5">
    <rdf:RDF>
      <cc:Work
         rdf:about="">
        <dc:format>image/svg+xml</dc:format>
        <dc:type
           rdf:resource="http://purl.org/dc/dcmitype/StillImage" />
        <dc:title></dc:title>
      </cc:Work>
    </rdf:RDF>
  </metadata>
  <g
     inkscape:label="Ebene 1"
     inkscape:groupmode="layer"
     id="layer1">
    <path
       style="fill:#000000;stroke-width:0.317451"
       d="m 101.00761,196.23381 c 6e-5,-0.6138 0.4254,-9.68432 0.94517,-20.15677 0.84321,-16.98902 1.85954,-38.85308 2.39094,-51.43566 l 0.18839,-4.46113 -0.80022,-0.4282 c -1.34558,-0.72004 -2.49989,-2.71041 -2.65475,-4.57755 -0.23643,-2.85066 1.39781,-5.19519 4.13496,-5.93212 5.08367,-1.3687 9.17892,4.26293 6.281,8.63737 -0.51906,0.78352 -1.31403,1.62271 -1.76662,1.86489 l -0.82289,0.44034 0.19588,4.77618 c 0.51919,12.65864 1.22514,28.04663 2.24871,49.01477 0.61672,12.63396 1.07824,23.01197 1.02561,23.06224 -0.0527,0.0503 -2.6316,0.14094 -5.73102,0.20151 l -5.63531,0.11013 z M 54.187621,187.83263 C 33.685882,173.1287 20.753785,151.60894 16.986723,125.9282 16.1307,120.09259 16.213878,107.78169 17.150774,101.64486 18.696907,91.517523 21.229712,83.386265 25.616787,74.465782 30.218035,65.109801 36.078064,57.042739 43.586145,49.728739 48.39722,45.042007 55.812976,39.079696 56.77723,39.123007 c 0.268287,0.012 7.501705,10.953389 7.639129,11.555044 0.04235,0.185274 -0.664494,0.836812 -1.570686,1.44786 -2.994901,2.019462 -6.716463,5.160434 -9.947252,8.395392 -12.012587,12.028147 -19.399619,27.05221 -21.780368,44.297847 -0.614059,4.44812 -0.533115,15.486 0.146654,19.99805 1.237208,8.21213 3.458087,15.38896 7.023358,22.69618 4.098681,8.40047 8.889718,14.95294 15.840701,21.66454 3.100637,2.99387 8.691805,7.53994 10.556612,8.58338 0.406599,0.22751 -0.180514,1.3003 -3.351044,6.12302 -2.114207,3.21593 -3.945897,5.87979 -4.070423,5.91972 -0.124525,0.0399 -1.508855,-0.84723 -3.07629,-1.97141 z m 98.040759,-3.86529 -3.86119,-5.91945 2.72223,-1.93522 c 4.84363,-3.44332 10.89671,-9.14071 14.87143,-13.99754 4.76474,-5.8222 10.2091,-15.55869 12.62636,-22.58057 1.45746,-4.23377 2.91115,-10.19147 3.59105,-14.71736 0.68427,-4.55505 0.76886,-15.59212 0.15326,-19.99805 -2.4163,-17.294037 -9.78944,-32.28634 -21.7854,-44.297847 -3.22317,-3.227328 -6.93839,-6.364233 -9.94316,-8.395392 -0.90395,-0.611048 -1.57962,-1.289351 -1.50145,-1.507343 0.2479,-0.691442 7.43033,-11.507259 7.6416,-11.507259 0.40194,0 5.12742,3.489986 8.07702,5.96525 3.80721,3.194984 9.62912,9.163737 12.75869,13.080504 7.68571,9.619011 13.69569,21.738168 16.74701,33.77052 2.04462,8.06254 2.69087,13.394387 2.69756,22.255737 0.006,8.21309 -0.24248,10.79672 -1.7723,18.41089 -4.41002,21.94962 -17.419,41.91397 -35.99416,55.23884 -1.56744,1.12439 -2.92131,2.04646 -3.00862,2.04904 -0.0874,0.003 -1.89628,-2.65907 -4.01993,-5.91475 z M 69.432414,163.30427 C 56.803772,153.61844 48.637465,140.055 45.877806,124.18233 45.118939,119.81758 44.975814,111.37151 45.58197,106.72372 47.017463,95.716913 51.002141,85.906332 57.636661,77.044103 c 3.205988,-4.282481 11.192848,-11.846242 14.68457,-13.906676 0.22485,-0.132677 1.339644,1.277788 2.936645,3.715512 1.415816,2.161163 2.574203,4.011354 2.574203,4.111557 0,0.100176 -1.068362,0.972166 -2.374143,1.937687 -1.305783,0.965544 -3.71807,3.099257 -5.360643,4.741595 -9.967843,9.966415 -15.158843,22.470422 -15.169282,36.539542 -0.0072,9.01549 1.650324,15.85273 5.808171,23.9659 3.404044,6.6423 8.960319,13.21129 14.945729,17.66981 l 2.77067,2.06388 -1.064203,1.66339 c -2.770386,4.3302 -4.123231,6.21774 -4.444361,6.20095 -0.192644,-0.01 -1.772869,-1.10942 -3.511603,-2.44298 z m 68.322996,-1.35976 c -1.35323,-2.09936 -2.46042,-3.92603 -2.46042,-4.05926 0,-0.13322 1.17862,-1.1159 2.61915,-2.18372 8.87588,-6.57935 16.03498,-17.16833 18.94909,-28.02747 1.13147,-4.21628 1.65701,-8.50457 1.6533,-13.49074 -0.006,-8.10964 -1.4234,-14.508937 -4.88632,-22.061337 -3.18608,-6.948554 -9.41551,-14.594112 -15.6426,-19.198613 -1.98,-1.464057 -2.33744,-1.860677 -2.08596,-2.314752 0.1669,-0.301373 1.35637,-2.159687 2.64328,-4.129562 l 2.33984,-3.581622 2.84027,2.129873 c 3.52784,2.645446 9.55916,8.644828 12.08079,12.016796 6.63307,8.869859 10.62405,18.69431 12.05674,29.679617 0.60615,4.64779 0.46303,13.09386 -0.29582,17.45861 -2.28029,13.11544 -7.96042,24.1953 -17.13522,33.42454 -2.90039,2.91761 -9.30553,8.16187 -9.96227,8.15669 -0.13938,-7.8e-4 -1.3606,-1.71965 -2.71385,-3.81905 z M 82.815208,143.81817 c -6.92214,-5.57608 -11.569199,-13.2009 -13.371023,-21.93895 -2.471251,-11.98447 1.211183,-24.834507 9.653579,-33.686727 2.022961,-2.121161 4.869776,-4.573533 6.242977,-5.377977 0.22585,-0.132306 0.977691,0.750059 1.967949,2.309579 l 1.602489,2.523688 -1.491744,1.0972 c -2.122816,1.56136 -5.27956,4.84147 -6.944759,7.21617 -8.664676,12.356447 -7.455773,29.161017 2.893583,40.222937 1.543948,1.65025 3.049773,2.94248 5.848927,5.01925 0.226433,0.16798 -2.931569,4.88145 -3.265537,4.87398 -0.1878,-0.004 -1.599187,-1.02083 -3.136441,-2.25915 z m 42.950922,-0.12079 c -0.90032,-1.33402 -1.58903,-2.46008 -1.53048,-2.50234 7.33587,-5.2952 11.66335,-11.47692 13.68735,-19.55214 0.98082,-3.91318 0.97487,-10.79489 -0.0127,-14.69918 -0.99476,-3.93265 -2.4313,-7.205367 -4.5477,-10.360547 -1.84064,-2.74409 -5.16764,-6.29304 -7.35373,-7.84433 -0.65479,-0.46466 -1.19053,-0.96657 -1.19053,-1.11536 0,-0.45603 2.93101,-4.706944 3.24544,-4.706944 0.58211,0 3.94228,2.821604 6.28302,5.275954 8.4424,8.85222 12.12483,21.702257 9.65358,33.686727 -1.79753,8.71724 -6.51355,16.46437 -13.32227,21.88486 -1.49373,1.18919 -2.8417,2.2064 -2.99545,2.26049 -0.15377,0.0541 -1.01619,-0.99316 -1.91652,-2.32719 z M 93.801647,130.57676 c -0.851685,-0.67314 -2.16198,-1.92068 -2.911716,-2.77232 -5.667359,-6.43752 -6.56524,-16.66817 -2.11185,-24.06267 1.603953,-2.66323 5.293204,-6.540917 6.223043,-6.540917 0.155546,0 0.617526,0.5288 1.02661,1.17508 l 0.743793,1.17507 -2.250413,2.237287 c -3.6686,3.6472 -5.259952,7.47813 -5.259952,12.66253 0,5.44331 2.283528,10.07489 6.776037,13.74364 l 1.220247,0.99648 -0.744025,1.3024 c -0.409221,0.71632 -0.838336,1.30351 -0.95361,1.30485 -0.115306,7.9e-4 -0.906455,-0.5483 -1.758164,-1.22143 z m 23.269883,-0.1147 -0.79976,-1.34091 1.17792,-0.96159 c 4.44654,-3.63 6.73368,-8.28626 6.73368,-13.70874 0,-5.13209 -1.58793,-8.99017 -5.19008,-12.60996 -2.32808,-2.339467 -2.3278,-2.338247 -0.99487,-4.128837 0.41467,-0.55706 0.50132,-0.56392 1.21509,-0.0963 1.40126,0.918 4.1588,3.998447 5.37585,6.005367 1.93277,3.18712 2.83028,6.46148 2.85162,10.40352 0.0324,5.98989 -1.78484,10.58214 -5.79165,14.63564 -1.31276,1.32803 -2.69984,2.57844 -3.08245,2.77866 -0.63014,0.3298 -0.7709,0.23783 -1.49535,-0.97684 z"
       id="path148" />
  </g>
</svg>
